<svg width="30" height="30" viewBox="0 0 30 30" fill="none" xmlns="http://www.w3.org/2000/svg">
<path d="M15 3C11.8174 3 8.76515 4.26428 6.51472 6.51472C4.26428 8.76515 3 11.8174 3 15C3 18.1826 4.26428 21.2348 6.51472 23.4853C8.76515 25.7357 11.8174 27 15 27C18.1826 27 21.2348 25.7357 23.4853 23.4853C25.7357 21.2348 27 18.1826 27 15C27 11.8174 25.7357 8.76515 23.4853 6.51472C21.2348 4.26428 18.1826 3 15 3ZM0 15C0 6.7155 6.7155 0 15 0C23.2845 0 30 6.7155 30 15C30 23.2845 23.2845 30 15 30C6.7155 30 0 23.2845 0 15Z" fill="white"/>
<path d="M15 18C14.6022 18 14.2206 17.842 13.9393 17.5607C13.658 17.2794 13.5 16.8978 13.5 16.5V15C13.5 14.6022 13.658 14.2206 13.9393 13.9393C14.2206 13.658 14.6022 13.5 15 13.5C15.3978 13.5 15.7794 13.658 16.0607 13.9393C16.342 14.2206 16.5 14.6022 16.5 15V16.5C16.5 16.8978 16.342 17.2794 16.0607 17.5607C15.7794 17.842 15.3978 18 15 18ZM12.75 21.75C12.75 21.1533 12.9871 20.581 13.409 20.159C13.831 19.7371 14.4033 19.5 15 19.5C15.5967 19.5 16.169 19.7371 16.591 20.159C17.0129 20.581 17.25 21.1533 17.25 21.75C17.25 22.3467 17.0129 22.919 16.591 23.341C16.169 23.7629 15.5967 24 15 24C14.4033 24 13.831 23.7629 13.409 23.341C12.9871 22.919 12.75 22.3467 12.75 21.75Z" fill="white"/>
<path d="M15.585 8.71651C14.1495 8.64901 12.945 9.45151 12.729 10.746C12.6534 11.1286 12.4318 11.4668 12.1112 11.6887C11.7905 11.9107 11.396 11.9991 11.0113 11.9351C10.6266 11.8711 10.2819 11.6598 10.0504 11.346C9.81882 11.0321 9.71861 10.6405 9.77097 10.254C10.305 7.05002 13.2255 5.60101 15.7275 5.72101C17.0085 5.78101 18.327 6.24151 19.341 7.18952C20.3805 8.16002 21 9.55201 21 11.25C21 13.1865 20.238 14.6235 18.9255 15.498C17.721 16.3005 16.2435 16.5 15 16.5C14.6021 16.5 14.2206 16.342 13.9393 16.0607C13.658 15.7794 13.5 15.3978 13.5 15C13.5 14.6022 13.658 14.2207 13.9393 13.9394C14.2206 13.6581 14.6021 13.5 15 13.5C16.005 13.5 16.779 13.3245 17.262 13.002C17.637 12.7515 18 12.312 18 11.25C18 10.323 17.682 9.74551 17.292 9.38101C16.8765 8.99251 16.272 8.75101 15.585 8.71651Z" fill="white"/>
</svg>
