<svg width="20" height="22" viewBox="0 0 20 22" fill="none" xmlns="http://www.w3.org/2000/svg">
<path d="M0.24781 0C0.0826033 0 0 0.110138 0 0.24781V21.7522C0 21.8899 0.110138 22 0.24781 22H18.9987C19.1364 22 19.2466 21.8899 19.2466 21.7522V0.24781C19.2466 0.0826033 19.1364 0 18.9987 0H0.24781V0ZM2.75344 2.75344H16.5207V8.26033H2.75344V2.75344ZM2.75344 11.0138H5.50688V13.7672H2.75344V11.0138ZM8.26033 11.0138H11.0138V13.7672H8.26033V11.0138ZM13.7672 11.0138H16.5207V19.2741H13.7672V11.0138ZM2.75344 16.5207H5.50688V19.2741H2.75344V16.5207ZM8.26033 16.5207H11.0138V19.2741H8.26033V16.5207Z" fill="#111E6C"/>
</svg>
