<svg width="28" height="28" viewBox="0 0 28 28" fill="none" xmlns="http://www.w3.org/2000/svg">
<path d="M14 2.8C11.0296 2.8 8.18081 3.98 6.0804 6.0804C3.98 8.18081 2.8 11.0296 2.8 14C2.8 16.9704 3.98 19.8192 6.0804 21.9196C8.18081 24.02 11.0296 25.2 14 25.2C16.9704 25.2 19.8192 24.02 21.9196 21.9196C24.02 19.8192 25.2 16.9704 25.2 14C25.2 11.0296 24.02 8.18081 21.9196 6.0804C19.8192 3.98 16.9704 2.8 14 2.8ZM0 14C0 6.2678 6.2678 0 14 0C21.7322 0 28 6.2678 28 14C28 21.7322 21.7322 28 14 28C6.2678 28 0 21.7322 0 14Z" fill="white"/>
<path d="M14 11.2C14.3713 11.2 14.7274 11.3475 14.9899 11.6101C15.2525 11.8726 15.4 12.2287 15.4 12.6V21C15.4 21.3713 15.2525 21.7274 14.9899 21.99C14.7274 22.2525 14.3713 22.4 14 22.4C13.6287 22.4 13.2726 22.2525 13.01 21.99C12.7475 21.7274 12.6 21.3713 12.6 21V12.6C12.6 12.2287 12.7475 11.8726 13.01 11.6101C13.2726 11.3475 13.6287 11.2 14 11.2ZM16.1 7.70001C16.1 8.25696 15.8787 8.7911 15.4849 9.18493C15.0911 9.57876 14.5569 9.80001 14 9.80001C13.443 9.80001 12.9089 9.57876 12.5151 9.18493C12.1212 8.7911 11.9 8.25696 11.9 7.70001C11.9 7.14305 12.1212 6.60891 12.5151 6.21508C12.9089 5.82126 13.443 5.60001 14 5.60001C14.5569 5.60001 15.0911 5.82126 15.4849 6.21508C15.8787 6.60891 16.1 7.14305 16.1 7.70001Z" fill="white"/>
</svg>
