<svg width="32" height="29" viewBox="0 0 32 29" fill="none" xmlns="http://www.w3.org/2000/svg">
<path d="M3.55894 19.5502C3.55894 20.0216 3.74619 20.4737 4.0795 20.807C4.41281 21.1403 4.86487 21.3275 5.33624 21.3275C5.8076 21.3275 6.25967 21.1403 6.59297 20.807C6.92628 20.4737 7.11353 20.0216 7.11353 19.5502C7.11353 19.0789 6.92628 18.6268 6.59297 18.2935C6.25967 17.9602 5.8076 17.7729 5.33624 17.7729C4.86487 17.7729 4.41281 17.9602 4.0795 18.2935C3.74619 18.6268 3.55894 19.0789 3.55894 19.5502ZM3.55894 24.58C2.51828 24.2128 1.61713 23.5318 0.979715 22.631C0.342299 21.7302 0 20.6538 0 19.5502C0 18.4467 0.342299 17.3703 0.979715 16.4695C1.61713 15.5686 2.51828 14.8877 3.55894 14.5205V1.7773C3.55894 1.30593 3.74619 0.853868 4.0795 0.520561C4.41281 0.187254 4.86487 5.29727e-06 5.33624 5.29727e-06C5.8076 5.29727e-06 6.25967 0.187254 6.59297 0.520561C6.92628 0.853868 7.11353 1.30593 7.11353 1.7773V14.5205C8.15419 14.8877 9.05534 15.5686 9.69276 16.4695C10.3302 17.3703 10.6725 18.4467 10.6725 19.5502C10.6725 20.6538 10.3302 21.7302 9.69276 22.631C9.05534 23.5318 8.15419 24.2128 7.11353 24.58V26.6594C7.11353 27.1308 6.92628 27.5828 6.59297 27.9161C6.25967 28.2495 5.8076 28.4367 5.33624 28.4367C4.86487 28.4367 4.41281 28.2495 4.0795 27.9161C3.74619 27.5828 3.55894 27.1308 3.55894 26.6594V24.58ZM14.2227 8.88648C14.2227 9.35784 14.41 9.8099 14.7433 10.1432C15.0766 10.4765 15.5286 10.6638 16 10.6638C16.4714 10.6638 16.9234 10.4765 17.2567 10.1432C17.59 9.8099 17.7773 9.35784 17.7773 8.88648C17.7773 8.41511 17.59 7.96305 17.2567 7.62974C16.9234 7.29643 16.4714 7.10918 16 7.10918C15.5286 7.10918 15.0766 7.29643 14.7433 7.62974C14.41 7.96305 14.2227 8.41511 14.2227 8.88648ZM14.2227 13.9162C13.182 13.549 12.2809 12.8681 11.6435 11.9672C11.0061 11.0664 10.6638 9.99002 10.6638 8.88648C10.6638 7.78293 11.0061 6.70655 11.6435 5.80571C12.2809 4.90487 13.182 4.22393 14.2227 3.85673V1.7773C14.2227 1.30593 14.41 0.853868 14.7433 0.520561C15.0766 0.187254 15.5286 5.29727e-06 16 5.29727e-06C16.4714 5.29727e-06 16.9234 0.187254 17.2567 0.520561C17.59 0.853868 17.7773 1.30593 17.7773 1.7773V3.85673C18.818 4.22393 19.7191 4.90487 20.3565 5.80571C20.9939 6.70655 21.3362 7.78293 21.3362 8.88648C21.3362 9.99002 20.9939 11.0664 20.3565 11.9672C19.7191 12.8681 18.818 13.549 17.7773 13.9162V26.6594C17.7773 27.1308 17.59 27.5828 17.2567 27.9161C16.9234 28.2495 16.4714 28.4367 16 28.4367C15.5286 28.4367 15.0766 28.2495 14.7433 27.9161C14.41 27.5828 14.2227 27.1308 14.2227 26.6594V13.9162ZM24.8865 19.5502C24.8865 20.0216 25.0737 20.4737 25.407 20.807C25.7403 21.1403 26.1924 21.3275 26.6638 21.3275C27.1351 21.3275 27.5872 21.1403 27.9205 20.807C28.2538 20.4737 28.4411 20.0216 28.4411 19.5502C28.4411 19.0789 28.2538 18.6268 27.9205 18.2935C27.5872 17.9602 27.1351 17.7729 26.6638 17.7729C26.1924 17.7729 25.7403 17.9602 25.407 18.2935C25.0737 18.6268 24.8865 19.0789 24.8865 19.5502ZM24.8865 24.58C23.8458 24.2128 22.9447 23.5318 22.3072 22.631C21.6698 21.7302 21.3275 20.6538 21.3275 19.5502C21.3275 18.4467 21.6698 17.3703 22.3072 16.4695C22.9447 15.5686 23.8458 14.8877 24.8865 14.5205V1.7773C24.8865 1.30593 25.0737 0.853868 25.407 0.520561C25.7403 0.187254 26.1924 5.29727e-06 26.6638 5.29727e-06C27.1351 5.29727e-06 27.5872 0.187254 27.9205 0.520561C28.2538 0.853868 28.4411 1.30593 28.4411 1.7773V14.5205C29.4817 14.8877 30.3829 15.5686 31.0203 16.4695C31.6577 17.3703 32 18.4467 32 19.5502C32 20.6538 31.6577 21.7302 31.0203 22.631C30.3829 23.5318 29.4817 24.2128 28.4411 24.58V26.6594C28.4411 27.1308 28.2538 27.5828 27.9205 27.9161C27.5872 28.2495 27.1351 28.4367 26.6638 28.4367C26.1924 28.4367 25.7403 28.2495 25.407 27.9161C25.0737 27.5828 24.8865 27.1308 24.8865 26.6594V24.58Z" fill="#111E6C"/>
</svg>
